<?xml version="1.0" encoding="UTF-8"?><svg id="_레이어_1" xmlns="http://www.w3.org/2000/svg" viewBox="0 0 150 48.57"><defs><style>.cls-1{fill:#fff;}</style></defs><g id="black"><g><path class="cls-1" d="m44.27,47.68l-4.71-21.5-.64.49c-3.44,2.6-6.33,6.08-8.36,10.04l-.03.06-2.39,10.91h-4.29L34.07.97h4.26l4.45,20.32.59-.29c2.42-1.19,5.62-2.56,8.89-2.56.98,0,1.94.12,2.86.37l.1.04v6.37c-2.29-1.5-5.04-2.35-7.63-2.35-.98,0-1.89.13-2.64.38-.42.14-.81.33-1.16.5l-.37.18.02.43,5.1,23.34h-4.29Zm-12.04-18.66l.91.42c1.57-2.04,3.36-3.86,5.35-5.39l.52-.4-2.3-10.52h-1.01l-3.48,15.88Z"/><path class="cls-1" d="m139.04,47.68l-4.71-21.5-.64.49c-3.44,2.6-6.33,6.08-8.36,10.04l-.03.06-2.39,10.91h-4.29L128.84.97h4.26l4.45,20.32.59-.29c2.42-1.19,5.62-2.56,8.89-2.56.98,0,1.94.12,2.86.37l.1.04v6.37c-2.29-1.5-5.04-2.35-7.63-2.35-.98,0-1.89.13-2.64.38-.42.14-.81.33-1.16.5l-.37.18.02.43,5.1,23.34h-4.29Zm-12.04-18.66l.91.42c1.57-2.04,3.36-3.86,5.35-5.39l.52-.4-2.3-10.52h-1.01l-3.48,15.88Z"/><path class="cls-1" d="m92.8.21c.97-.11,1.95-.18,2.92-.21.22,0,.45,0,.68,0,.33,0,.67,0,1.02.02,12.16.38,21.19,8.09,21.95,18.75.83,11.73-8.65,24.01-22.03,28.58-1.25.43-2.55.79-3.86,1.08,0,0-.61.13-.68.14V.21Zm4.35,45.4l.73-.33c9.98-4.48,16.71-15.17,16-25.41-.64-9.22-7.12-16.37-16.13-17.78l-.6-.09v43.61Z"/><polygon class="cls-1" points="59.2 47.68 59.2 1.1 63.55 1.1 63.55 46.2 72.02 46.2 72.02 47.68 59.2 47.68"/><polygon class="cls-1" points="76 47.68 76 1.1 80.34 1.1 80.34 46.2 88.82 46.2 88.82 47.68 76 47.68"/><path class="cls-1" d="m0,47.68V.13C1.21.04,2.46,0,3.69,0c.31,0,.62,0,.93,0,12.17.23,21.2,4.8,21.95,11.12.83,7-8.35,14.11-21.81,16.91l-.41.09v19.55H0Zm4.35-21.3l.64-.16c10.04-2.49,16.81-8.49,16.09-14.26C20.43,6.77,13.93,2.76,4.91,1.99l-.56-.05v24.44Z"/></g></g></svg>